# xmcd
#
# Track frame offsets: 
#        150
#        11237
#        23700
#        36760
#        51284
#        63639
#        72105
#        86139
#        96827
#        107883
#
# Disc length: 1637 seconds
#
# Revision: 0
# Processed by: cddbd v1.5.1PL2 Copyright (c) Steve Scherf et al.
# Submitted via: ExactAudioCopy v0.95b4
#
DISCID=8706630a
DTITLE=Various Artist - Country Gospel Greats
DYEAR=2006
DGENRE=Christian old
TTITLE0=How Beautiful Heaven Must Be
TTITLE1=I Saw The The Light
TTITLE2=Just A Closer Walk With Tree
TTITLE3=Church In The Wildwood
TTITLE4=Peace Like A River
TTITLE5=I'll Live In Glory
TTITLE6=Leaning On The Everlasting Arms
TTITLE7=In Heaven We'll Never Grow Old
TTITLE8=When God Dips His Love In My Heart
TTITLE9=Swing Low Swing Chariot
EXTD=
EXTT0=George Jones
EXTT1=Hank Williams
EXTT2=Patsy Cline and Willie Nelson
EXTT3=The Carter Family
EXTT4=The Blackwood Boys
EXTT5=The Oak Ridge Boys
EXTT6=Eddy Raven
EXTT7=Ralph Stanley and The Clinch Mountain Boys
EXTT8=Jim Reeves\n
EXTT9=The Jordanaires
PLAYORDER=
